<svg width="320" height="320" viewBox="0 0 320 320" fill="none" xmlns="http://www.w3.org/2000/svg">
<g clip-path="url(#clip0_14_185)">
<rect width="320" height="320" fill="white"/>
<path d="M131.386 111.891L312.157 127.117" stroke="#8AC90A" stroke-width="2" stroke-miterlimit="10" stroke-linecap="round" stroke-linejoin="round" stroke-dasharray="10 10"/>
<path d="M7.72437 186.157L131.386 111.891" stroke="#8AC90A" stroke-width="2" stroke-miterlimit="10" stroke-linecap="round" stroke-linejoin="round" stroke-dasharray="10 10"/>
<path d="M159.706 22.3825L131.386 111.891" stroke="#8AC90A" stroke-width="2" stroke-miterlimit="10" stroke-linecap="round" stroke-linejoin="round" stroke-dasharray="10 10"/>
<path d="M159.706 282.584L131.386 111.891" stroke="#8AC90A" stroke-width="2" stroke-miterlimit="10" stroke-linecap="round" stroke-linejoin="round" stroke-dasharray="10 10"/>
<path d="M312.157 127.117L159.706 22.3824" stroke="#7F7F7F" stroke-width="2" stroke-miterlimit="10" stroke-linecap="round" stroke-linejoin="round"/>
<path d="M199.765 205.082L312.157 127.117" stroke="#7F7F7F" stroke-width="2" stroke-miterlimit="10" stroke-linecap="round" stroke-linejoin="round"/>
<path d="M7.72437 186.157L199.765 205.082" stroke="#7F7F7F" stroke-width="2" stroke-miterlimit="10" stroke-linecap="round" stroke-linejoin="round"/>
<path d="M159.706 22.3824C159.974 22.4196 7.72437 186.157 7.72437 186.157" stroke="#7F7F7F" stroke-width="2" stroke-miterlimit="10" stroke-linecap="round" stroke-linejoin="round"/>
<path d="M199.765 205.082C199.765 205.082 159.678 22.6619 159.706 22.3824" stroke="#7F7F7F" stroke-width="2" stroke-miterlimit="10" stroke-linecap="round" stroke-linejoin="round"/>
<path d="M312.157 127.117L159.706 282.583" stroke="#7F7F7F" stroke-width="2" stroke-miterlimit="10" stroke-linecap="round" stroke-linejoin="round"/>
<path d="M159.706 282.584C159.974 282.621 7.72437 186.157 7.72437 186.157" stroke="#7F7F7F" stroke-width="2" stroke-miterlimit="10" stroke-linecap="round" stroke-linejoin="round"/>
<path d="M199.765 205.082C199.765 205.082 159.678 282.863 159.706 282.583" stroke="#7F7F7F" stroke-width="2" stroke-miterlimit="10" stroke-linecap="round" stroke-linejoin="round"/>
<path d="M159.706 24.9149C161.087 24.9149 162.206 23.7956 162.206 22.4149C162.206 21.0342 161.087 19.9149 159.706 19.9149C158.326 19.9149 157.206 21.0342 157.206 22.4149C157.206 23.7956 158.326 24.9149 159.706 24.9149Z" fill="white" stroke="#7F7F7F" stroke-width="2" stroke-miterlimit="10" stroke-linecap="round" stroke-linejoin="round"/>
<path d="M162.909 6.67383H157.979V10.7051H163.706V11.9316H156.479V0.556641H163.628V1.79102H157.979V5.44727H162.909V6.67383Z" fill="#7F7F7F"/>
<path d="M159.706 285.116C161.087 285.116 162.206 283.997 162.206 282.616C162.206 281.235 161.087 280.116 159.706 280.116C158.326 280.116 157.206 281.235 157.206 282.616C157.206 283.997 158.326 285.116 159.706 285.116Z" fill="white" stroke="#7F7F7F" stroke-width="2" stroke-miterlimit="10" stroke-linecap="round" stroke-linejoin="round"/>
<path d="M162.878 298.258H158.104V303.282H156.604V291.907H163.651V293.141H158.104V297.032H162.878V298.258Z" fill="#7F7F7F"/>
<path d="M131.387 114.468C132.767 114.468 133.887 113.349 133.887 111.968C133.887 110.587 132.767 109.468 131.387 109.468C130.006 109.468 128.887 110.587 128.887 111.968C128.887 113.349 130.006 114.468 131.387 114.468Z" fill="white" stroke="#8AC90A" stroke-width="2" stroke-miterlimit="10" stroke-linecap="round" stroke-linejoin="round"/>
<path d="M118.028 108.468H115.653L115.669 107.241H118.028C118.841 107.241 119.518 107.072 120.059 106.734C120.601 106.39 121.007 105.911 121.278 105.296C121.554 104.676 121.692 103.952 121.692 103.124V102.429C121.692 101.778 121.614 101.2 121.458 100.694C121.302 100.184 121.072 99.7544 120.77 99.4054C120.468 99.0513 120.098 98.783 119.661 98.6007C119.229 98.4184 118.731 98.3273 118.169 98.3273H115.606V97.0929H118.169C118.913 97.0929 119.593 97.2179 120.208 97.4679C120.822 97.7127 121.351 98.0695 121.794 98.5382C122.242 99.0018 122.585 99.5643 122.825 100.226C123.065 100.882 123.184 101.622 123.184 102.444V103.124C123.184 103.947 123.065 104.689 122.825 105.351C122.585 106.007 122.239 106.567 121.786 107.03C121.338 107.494 120.796 107.851 120.161 108.101C119.531 108.346 118.82 108.468 118.028 108.468ZM116.458 97.0929V108.468H114.95V97.0929H116.458Z" fill="#8AC90A"/>
<path d="M312.157 129.616C313.538 129.616 314.657 128.496 314.657 127.116C314.657 125.735 313.538 124.616 312.157 124.616C310.777 124.616 309.657 125.735 309.657 127.116C309.657 128.496 310.777 129.616 312.157 129.616Z" fill="white" stroke="#7F7F7F" stroke-width="2" stroke-miterlimit="10" stroke-linecap="round" stroke-linejoin="round"/>
<path d="M316.638 145.576C316.497 146.779 316.052 147.709 315.302 148.365C314.557 149.016 313.565 149.342 312.325 149.342C310.981 149.342 309.903 148.86 309.091 147.897C308.284 146.933 307.88 145.644 307.88 144.029V142.936C307.88 141.878 308.067 140.949 308.442 140.147C308.823 139.344 309.359 138.73 310.052 138.303C310.744 137.871 311.547 137.654 312.458 137.654C313.666 137.654 314.635 137.993 315.364 138.67C316.093 139.342 316.518 140.274 316.638 141.467H315.13C315 140.561 314.716 139.904 314.278 139.498C313.846 139.092 313.239 138.889 312.458 138.889C311.5 138.889 310.747 139.243 310.2 139.951C309.659 140.66 309.388 141.667 309.388 142.975V144.076C309.388 145.311 309.646 146.292 310.161 147.022C310.677 147.751 311.398 148.115 312.325 148.115C313.159 148.115 313.797 147.928 314.239 147.553C314.687 147.173 314.984 146.514 315.13 145.576H316.638Z" fill="#7F7F7F"/>
<path d="M199.765 207.564C201.146 207.564 202.265 206.445 202.265 205.064C202.265 203.683 201.146 202.564 199.765 202.564C198.384 202.564 197.265 203.683 197.265 205.064C197.265 206.445 198.384 207.564 199.765 207.564Z" fill="white" stroke="#7F7F7F" stroke-width="2" stroke-miterlimit="10" stroke-linecap="round" stroke-linejoin="round"/>
<mask id="path-22-inside-1_14_185" fill="white">
<path d="M205.041 221.261V209.886H208.76C209.994 209.886 210.921 210.142 211.541 210.652C212.166 211.162 212.479 211.918 212.479 212.918C212.479 213.449 212.327 213.92 212.025 214.332C211.723 214.738 211.312 215.053 210.791 215.277C211.406 215.449 211.89 215.777 212.244 216.261C212.604 216.741 212.783 217.313 212.783 217.98C212.783 219.001 212.452 219.803 211.791 220.386C211.13 220.97 210.195 221.261 208.986 221.261H205.041ZM206.541 215.941V220.035H209.018C209.715 220.035 210.265 219.855 210.666 219.496C211.072 219.131 211.275 218.631 211.275 217.996C211.275 216.626 210.531 215.941 209.041 215.941H206.541ZM206.541 214.738H208.807C209.463 214.738 209.986 214.574 210.377 214.246C210.773 213.918 210.971 213.472 210.971 212.91C210.971 212.285 210.788 211.832 210.424 211.55C210.059 211.264 209.505 211.121 208.76 211.121H206.541V214.738Z"/>
</mask>
<path d="M205.041 221.261V209.886H208.76C209.994 209.886 210.921 210.142 211.541 210.652C212.166 211.162 212.479 211.918 212.479 212.918C212.479 213.449 212.327 213.92 212.025 214.332C211.723 214.738 211.312 215.053 210.791 215.277C211.406 215.449 211.89 215.777 212.244 216.261C212.604 216.741 212.783 217.313 212.783 217.98C212.783 219.001 212.452 219.803 211.791 220.386C211.13 220.97 210.195 221.261 208.986 221.261H205.041ZM206.541 215.941V220.035H209.018C209.715 220.035 210.265 219.855 210.666 219.496C211.072 219.131 211.275 218.631 211.275 217.996C211.275 216.626 210.531 215.941 209.041 215.941H206.541ZM206.541 214.738H208.807C209.463 214.738 209.986 214.574 210.377 214.246C210.773 213.918 210.971 213.472 210.971 212.91C210.971 212.285 210.788 211.832 210.424 211.55C210.059 211.264 209.505 211.121 208.76 211.121H206.541V214.738Z" fill="#7F7F7F"/>
<path d="M205.041 221.261H204.041V222.261H205.041V221.261ZM205.041 209.886V208.886H204.041V209.886H205.041ZM211.541 210.652L210.905 211.424L210.908 211.427L211.541 210.652ZM212.025 214.332L212.828 214.928L212.831 214.924L212.025 214.332ZM210.791 215.277L210.396 214.358L207.794 215.477L210.522 216.24L210.791 215.277ZM212.244 216.261L211.437 216.852L211.444 216.861L212.244 216.261ZM211.791 220.386L211.13 219.636L211.791 220.386ZM206.541 215.941V214.941H205.541V215.941H206.541ZM206.541 220.035H205.541V221.035H206.541V220.035ZM210.666 219.496L211.333 220.241L211.334 220.24L210.666 219.496ZM206.541 214.738H205.541V215.738H206.541V214.738ZM210.377 214.246L209.739 213.476L209.734 213.48L210.377 214.246ZM210.424 211.55L209.806 212.337L209.813 212.342L210.424 211.55ZM206.541 211.121V210.121H205.541V211.121H206.541ZM206.041 221.261V209.886H204.041V221.261H206.041ZM205.041 210.886H208.76V208.886H205.041V210.886ZM208.76 210.886C209.881 210.886 210.539 211.122 210.905 211.424L212.177 209.88C211.304 209.161 210.107 208.886 208.76 208.886V210.886ZM210.908 211.427C211.246 211.702 211.479 212.139 211.479 212.918H213.479C213.479 211.696 213.086 210.623 212.174 209.878L210.908 211.427ZM211.479 212.918C211.479 213.245 211.39 213.507 211.219 213.74L212.831 214.924C213.265 214.333 213.479 213.653 213.479 212.918H211.479ZM211.223 213.735C211.038 213.984 210.775 214.195 210.396 214.358L211.186 216.196C211.849 215.911 212.409 215.492 212.828 214.928L211.223 213.735ZM210.522 216.24C210.935 216.356 211.224 216.56 211.437 216.852L213.051 215.671C212.556 214.994 211.876 214.542 211.06 214.314L210.522 216.24ZM211.444 216.861C211.659 217.148 211.783 217.504 211.783 217.98H213.783C213.783 217.123 213.548 216.333 213.044 215.661L211.444 216.861ZM211.783 217.98C211.783 218.764 211.541 219.274 211.13 219.636L212.452 221.136C213.364 220.333 213.783 219.238 213.783 217.98H211.783ZM211.13 219.636C210.709 220.007 210.042 220.261 208.986 220.261V222.261C210.348 222.261 211.55 221.932 212.452 221.136L211.13 219.636ZM208.986 220.261H205.041V222.261H208.986V220.261ZM205.541 215.941V220.035H207.541V215.941H205.541ZM206.541 221.035H209.018V219.035H206.541V221.035ZM209.018 221.035C209.887 221.035 210.7 220.808 211.333 220.241L209.999 218.751C209.83 218.902 209.544 219.035 209.018 219.035V221.035ZM211.334 220.24C211.987 219.654 212.275 218.864 212.275 217.996H210.275C210.275 218.398 210.158 218.608 209.998 218.752L211.334 220.24ZM212.275 217.996C212.275 217.134 212.037 216.311 211.394 215.719C210.766 215.141 209.92 214.941 209.041 214.941V216.941C209.651 216.941 209.923 217.083 210.04 217.191C210.141 217.284 210.275 217.488 210.275 217.996H212.275ZM209.041 214.941H206.541V216.941H209.041V214.941ZM206.541 215.738H208.807V213.738H206.541V215.738ZM208.807 215.738C209.629 215.738 210.403 215.53 211.02 215.011L209.734 213.48C209.57 213.618 209.296 213.738 208.807 213.738V215.738ZM211.015 215.016C211.664 214.478 211.971 213.738 211.971 212.91H209.971C209.971 213.206 209.882 213.357 209.739 213.476L211.015 215.016ZM211.971 212.91C211.971 212.094 211.725 211.292 211.035 210.759L209.813 212.342C209.851 212.372 209.971 212.476 209.971 212.91H211.971ZM211.042 210.764C210.422 210.277 209.602 210.121 208.76 210.121V212.121C209.407 212.121 209.696 212.251 209.806 212.337L211.042 210.764ZM208.76 210.121H206.541V212.121H208.76V210.121ZM205.541 211.121V214.738H207.541V211.121H205.541Z" fill="#7F7F7F" mask="url(#path-22-inside-1_14_185)"/>
<path d="M7.72461 188.666C9.10532 188.666 10.2246 187.547 10.2246 186.166C10.2246 184.786 9.10532 183.666 7.72461 183.666C6.3439 183.666 5.22461 184.786 5.22461 186.166C5.22461 187.547 6.3439 188.666 7.72461 188.666Z" fill="white" stroke="#7F7F7F" stroke-width="2" stroke-miterlimit="10" stroke-linecap="round" stroke-linejoin="round"/>
<path d="M10.1072 205.268H5.34155L4.27124 208.236H2.72437L7.06812 196.861H8.38062L12.7322 208.236H11.1931L10.1072 205.268ZM5.79468 204.033H9.66187L7.72437 198.713L5.79468 204.033Z" fill="#7F7F7F"/>
</g>
<defs>
<clipPath id="clip0_14_185">
<rect width="320" height="320" fill="white"/>
</clipPath>
</defs>
</svg>
